<svg width="24" height="24" viewBox="0 0 24 24" fill="none" xmlns="http://www.w3.org/2000/svg">
<path fill-rule="evenodd" clip-rule="evenodd" d="M8.72872 11.5554C8.35227 9.67137 8.71455 7.92536 8.92545 6.17471C9.02353 5.36083 9.14826 4.55796 9.06719 3.73771C8.98101 2.87166 8.40216 3.07861 7.91686 3.2328C7.36409 3.40845 6.31127 3.81017 6.69056 4.23334C7.80233 5.47445 7.01712 6.60947 6.84873 7.75087C6.54372 9.8105 6.65257 10.1641 8.72872 11.5554ZM14.2904 19.8536C13.7065 19.1145 12.6367 19.0518 12.2268 18.1539C10.8933 15.234 8.56828 13.1628 6.38724 10.9728C5.45802 10.0401 4.73913 9.00184 4.35474 7.72595C4.22491 7.29698 4.24476 6.63556 3.51907 6.88135C2.86198 7.1051 2.92547 7.67783 3.09272 8.21114C3.49922 9.51196 3.97205 10.8818 5.12012 11.6058C7.36862 13.0243 8.80979 15.1216 10.2827 17.2496C11.2505 18.6472 12.5777 19.6054 14.2904 19.8536ZM17.8968 19.4142C18.4104 19.4142 18.6497 19.4385 18.8821 19.4089C19.4128 19.3423 20.1736 19.562 20.2768 18.7829C20.367 18.0988 19.6294 18.0502 19.1758 17.8757C17.3724 17.1829 16.391 15.7946 15.9397 13.9553C15.6177 12.6446 15.4323 11.2916 15.0139 10.0163C14.4809 8.39027 14.274 6.52832 11.6519 6.83497C10.0089 7.02743 9.8456 6.72889 9.75262 8.53113C9.61429 11.2116 10.3967 13.4619 11.8945 15.7795C13.5098 18.2785 15.4731 19.3 17.8968 19.4142ZM17.7301 21.4888C13.3556 21.6639 10.1739 19.777 8.08297 15.874C7.3862 14.5726 6.27669 13.6712 5.07249 12.8817C3.3796 11.7716 2.49743 10.1038 2.08186 8.15723C1.86359 7.13525 2.03821 6.2576 3.14148 5.7811C3.83882 5.47908 4.36722 4.93302 4.83721 4.29826C5.87926 2.89079 7.21895 1.97836 9.03034 2.00039C9.82916 2.01024 10.2022 2.29603 10.1472 3.23164C10.0123 5.53589 11.1252 6.39441 13.313 5.68951C14.2774 5.3788 14.7361 5.72023 14.9872 6.6257C15.6284 8.93865 16.4607 11.1936 16.8763 13.5767C17.1609 15.208 18.0981 16.3662 19.6571 16.9476C20.6 17.2989 21.5899 17.6131 21.4935 18.9614C21.3977 20.3022 20.4684 20.8425 19.3907 21.1874C18.8583 21.3573 18.2846 21.3926 17.7301 21.4888Z" fill="#111827"/>
</svg>
