<svg width="24" height="24" viewBox="0 0 24 24" fill="none" xmlns="http://www.w3.org/2000/svg">
<path d="M16.6539 12.5205C16.6137 13.0026 16.6941 13.4847 16.9351 13.9667C17.2966 14.971 18.0197 15.7342 19.1043 16.2163C18.783 17.2607 18.2607 18.2248 17.618 19.1488C16.7342 20.3539 15.8505 20.9967 15.0069 20.9967C14.6052 20.9967 14.1231 20.8761 13.5607 20.6351C12.918 20.3941 12.3556 20.2736 11.9137 20.2736C11.4317 20.2736 10.8693 20.4343 10.1863 20.6753C9.62395 20.9163 9.18207 20.9967 8.90087 20.9967C8.29831 21.0368 7.65557 20.7155 7.01283 20.0325C6.49061 19.5505 5.96838 18.8274 5.48633 17.9436C5.08462 17.2206 4.76325 16.5778 4.5624 15.9753C4.16068 14.8505 4 13.7659 4 12.7214C4 11.5966 4.20086 10.5923 4.68291 9.74874C5.08462 8.98549 5.64701 8.38293 6.37009 7.98122C7.09317 7.5795 7.81625 7.37865 8.61968 7.33848C9.02139 7.33848 9.7043 7.49916 10.5881 7.82053C11.1505 8.06156 11.512 8.1419 11.6727 8.1419C11.8334 8.1419 12.1547 8.06156 12.677 7.8607C13.159 7.70002 13.5607 7.53933 13.8821 7.45899C14.3641 7.33848 14.8462 7.29831 15.2479 7.29831C16.7744 7.45899 17.8992 8.06156 18.6625 9.10601C17.2966 9.90943 16.6137 11.0744 16.6539 12.5205ZM14.3641 5.89232V5.93249C13.4804 6.93677 12.5564 7.37865 11.5923 7.29831C11.4718 6.25386 11.7932 5.28975 12.5966 4.40599C12.918 4.04445 13.3197 3.72308 13.8419 3.44188C14.324 3.20086 14.8462 3.04017 15.3282 3C15.4086 4.08462 15.0872 5.04873 14.3641 5.89232Z" fill="#24292F"/>
</svg>
