<svg width="38" height="38" viewBox="0 0 38 38" fill="none" xmlns="http://www.w3.org/2000/svg">
<path fill-rule="evenodd" clip-rule="evenodd" d="M20.5353 6.28531C20.9991 5.82156 21.7509 5.82156 22.2147 6.28531L34.0897 18.1603C34.3124 18.383 34.4375 18.6851 34.4375 19C34.4375 19.3149 34.3124 19.617 34.0897 19.8397L22.2147 31.7147C21.7509 32.1784 20.9991 32.1784 20.5353 31.7147C20.0716 31.2509 20.0716 30.4991 20.5353 30.0353L30.3831 20.1875H4.75C4.09416 20.1875 3.5625 19.6558 3.5625 19C3.5625 18.3442 4.09416 17.8125 4.75 17.8125H30.3831L20.5353 7.96469C20.0716 7.50094 20.0716 6.74906 20.5353 6.28531Z" fill="#111827"/>
</svg>
