<svg width="25" height="24" viewBox="0 0 25 24" fill="none" xmlns="http://www.w3.org/2000/svg">
<path fill-rule="evenodd" clip-rule="evenodd" d="M11.95 2C13.4964 2 14.9301 2.67858 15.9092 3.82048L15.9298 3.84479L15.9936 3.83684C16.0749 3.82923 16.1565 3.82351 16.2384 3.81969L16.4848 3.81395C19.365 3.81395 21.7 6.14885 21.7 9.02907C21.7 10.8975 20.7081 12.5843 19.1541 13.5104L18.979 13.6102V18.0988C18.979 19.9167 17.553 21.4014 15.7585 21.4953L15.5779 21.5H8.32204C6.44362 21.5 4.92088 19.9773 4.92088 18.0988V13.6102L4.74578 13.5104C3.25396 12.6213 2.2802 11.0312 2.20468 9.25237L2.19995 9.02907C2.19995 6.14884 4.53484 3.81395 7.41507 3.81395C7.57985 3.81395 7.74374 3.82162 7.90636 3.83684L7.97104 3.84479L8.15901 3.63342C9.0789 2.65933 10.347 2.06525 11.7189 2.00506L11.95 2ZM11.95 3.36047C10.6918 3.36047 9.53639 3.96676 8.81611 4.97011L8.56319 5.32244L8.13704 5.24179C7.90096 5.19711 7.65964 5.17442 7.41507 5.17442C5.28621 5.17442 3.56042 6.90021 3.56042 9.02907C3.56042 10.5761 4.48004 11.9545 5.87347 12.5633L6.28135 12.7415V18.0988C6.28135 19.2259 7.19498 20.1395 8.32204 20.1395H15.5779C16.7049 20.1395 17.6186 19.2259 17.6186 18.0988V12.7415L18.0264 12.5633C19.4199 11.9545 20.3395 10.5761 20.3395 9.02907C20.3395 6.90021 18.6137 5.17442 16.4848 5.17442C16.2403 5.17442 15.999 5.19711 15.7628 5.2418L15.3367 5.32244L15.0838 4.97012C14.3635 3.96675 13.2081 3.36047 11.95 3.36047ZM16.4848 17.1919V18.0988C16.4848 18.5998 16.0788 19.0058 15.5779 19.0058H8.32204C7.82114 19.0058 7.41507 18.5998 7.41507 18.0988V17.1919H16.4848ZM11.95 4.49419C12.8599 4.49419 13.666 4.93909 14.1628 5.63126L14.8373 6.57082L15.9738 6.35574C16.1379 6.32466 16.3086 6.30814 16.4848 6.30814C17.9876 6.30814 19.2058 7.52635 19.2058 9.02907C19.2058 10.142 18.5373 11.1029 17.5726 11.5244L16.4848 11.9996V15.3779H7.41507V11.9996L6.32737 11.5244C5.3626 11.1029 4.69414 10.142 4.69414 9.02907C4.69414 7.52635 5.91234 6.30814 7.41507 6.30814C7.5913 6.30814 7.76199 6.32466 7.92619 6.35574L9.06261 6.57082L9.73709 5.63125C10.234 4.93909 11.04 4.49419 11.95 4.49419Z" fill="#111827"/>
</svg>
