<svg width="24" height="24" viewBox="0 0 24 24" fill="none" xmlns="http://www.w3.org/2000/svg">
<path fill-rule="evenodd" clip-rule="evenodd" d="M8.36459 6C9.24181 6 9.95455 6.71867 9.95455 7.59316L9.95429 10.5451H14.0451L14.0455 7.59316C14.0455 6.71867 14.7582 6 15.6354 6H16.5464C17.4283 6 18.1364 6.71285 18.1364 7.59316L18.1361 7.83419C18.2101 7.82364 18.2858 7.81818 18.3627 7.81818H19.2737C20.1548 7.81818 20.8636 8.52828 20.8636 9.40686L20.8634 11.2269L21.4247 11.2273C21.7242 11.2273 21.9635 11.448 21.9962 11.7323L22 11.799V13.3828C22 13.7029 21.7424 13.9545 21.4247 13.9545L20.8634 13.9543L20.8636 15.775C20.8636 16.6528 20.1516 17.3636 19.2737 17.3636H18.3627C18.2378 17.3636 18.1164 17.3494 18 17.3224C17.7534 17.88 17.1949 18.2727 16.5464 18.2727H15.6354C14.7535 18.2727 14.0455 17.5599 14.0455 16.6796L14.0451 14.636H9.95429L9.95455 16.6796C9.95455 17.5273 9.29793 18.2197 8.46183 18.2698L8.36459 18.2727H7.4536C6.80515 18.2727 6.24658 17.88 5.99934 17.322C5.88357 17.3494 5.76217 17.3636 5.63731 17.3636H4.72632C3.84837 17.3636 3.13636 16.6528 3.13636 15.775L3.136 13.9543L2.57528 13.9545C2.25756 13.9545 2 13.7029 2 13.3828V11.799C2 11.4832 2.25281 11.2273 2.57528 11.2273L3.136 11.2269L3.13636 9.40686C3.13636 8.56082 3.79368 7.87101 4.62916 7.82108L4.72632 7.81818H5.63731C5.71424 7.81818 5.7899 7.82364 5.86391 7.83419L5.86364 7.59316C5.86364 6.71285 6.57173 6 7.4536 6H8.36459ZM8.36459 7.36364H7.4536C7.3269 7.36364 7.22727 7.46393 7.22727 7.59316V16.6796C7.22727 16.8035 7.33203 16.9091 7.4536 16.9091H8.36459C8.49129 16.9091 8.59091 16.8088 8.59091 16.6796V7.59316C8.59091 7.46927 8.48615 7.36364 8.36459 7.36364ZM15.4091 16.6796C15.4091 16.8088 15.5087 16.9091 15.6354 16.9091H16.5464C16.668 16.9091 16.7727 16.8035 16.7727 16.6796V7.59316C16.7727 7.46393 16.6731 7.36364 16.5464 7.36364H15.6354C15.5139 7.36364 15.4091 7.46927 15.4091 7.59316V16.6796ZM5.63731 9.18182H4.72632C4.59887 9.18182 4.5 9.28086 4.5 9.40686V15.775C4.5 15.8992 4.60099 16 4.72632 16H5.63731C5.76477 16 5.86364 15.901 5.86364 15.775V9.40686C5.86364 9.28264 5.76265 9.18182 5.63731 9.18182ZM19.2737 9.18182H18.3627C18.2373 9.18182 18.1364 9.28264 18.1364 9.40686V15.775C18.1364 15.901 18.2352 16 18.3627 16H19.2737C19.399 16 19.5 15.8992 19.5 15.775V9.40686C19.5 9.28086 19.4011 9.18182 19.2737 9.18182ZM14.0455 11.9091H9.95455V13.2727H14.0455V11.9091Z" fill="#111827"/>
</svg>
