<svg width="24" height="24" viewBox="0 0 24 24" fill="none" xmlns="http://www.w3.org/2000/svg">
<path fill-rule="evenodd" clip-rule="evenodd" d="M6.0517 3.5478C5.93168 3.42778 5.76889 3.36035 5.59916 3.36035C5.42942 3.36035 5.26663 3.42778 5.14661 3.5478L1.94661 6.7478C1.69667 6.99774 1.69667 7.40296 1.94661 7.6529C2.19654 7.90284 2.60177 7.90284 2.8517 7.6529L4.95916 5.54545L4.95915 18.4553L2.8517 16.3478C2.60177 16.0979 2.19654 16.0979 1.94661 16.3478C1.69667 16.5977 1.69667 17.003 1.94661 17.2529L5.14661 20.4529C5.26663 20.5729 5.42942 20.6404 5.59915 20.6404C5.76889 20.6404 5.93168 20.5729 6.0517 20.4529L9.2517 17.2529C9.50164 17.003 9.50164 16.5977 9.2517 16.3478C9.00177 16.0979 8.59654 16.0979 8.34661 16.3478L6.23916 18.4553L6.23916 5.54545L8.34661 7.6529C8.59654 7.90284 9.00177 7.90284 9.2517 7.6529C9.50164 7.40297 9.50164 6.99774 9.2517 6.7478L6.0517 3.5478ZM13.5999 6.40035C13.1581 6.40035 12.7999 6.75852 12.7999 7.20035C12.7999 7.64218 13.1581 8.00035 13.5999 8.00035H23.1999C23.6418 8.00035 23.9999 7.64218 23.9999 7.20035C23.9999 6.75852 23.6418 6.40035 23.1999 6.40035H13.5999ZM12.7999 12.0004C12.7999 11.5585 13.1581 11.2004 13.5999 11.2004H23.1999C23.6418 11.2004 23.9999 11.5585 23.9999 12.0004C23.9999 12.4422 23.6418 12.8004 23.1999 12.8004H13.5999C13.1581 12.8004 12.7999 12.4422 12.7999 12.0004ZM13.5999 16.0004C13.1581 16.0004 12.7999 16.3585 12.7999 16.8004C12.7999 17.2422 13.1581 17.6004 13.5999 17.6004H23.1999C23.6418 17.6004 23.9999 17.2422 23.9999 16.8004C23.9999 16.3585 23.6418 16.0004 23.1999 16.0004H13.5999Z" fill="#111827"/>
</svg>
