<svg width="25" height="24" viewBox="0 0 25 24" fill="none" xmlns="http://www.w3.org/2000/svg">
<path d="M3.79993 13.125C3.79993 12.5037 4.30361 12 4.92493 12H7.17493C7.79625 12 8.29993 12.5037 8.29993 13.125V19.875C8.29993 20.4963 7.79625 21 7.17493 21H4.92493C4.30361 21 3.79993 20.4963 3.79993 19.875V13.125Z" stroke="#111827" stroke-width="1.5" stroke-linecap="round" stroke-linejoin="round"/>
<path d="M10.5499 8.625C10.5499 8.00368 11.0536 7.5 11.6749 7.5H13.9249C14.5462 7.5 15.0499 8.00368 15.0499 8.625V19.875C15.0499 20.4963 14.5462 21 13.9249 21H11.6749C11.0536 21 10.5499 20.4963 10.5499 19.875V8.625Z" stroke="#111827" stroke-width="1.5" stroke-linecap="round" stroke-linejoin="round"/>
<path d="M17.2999 4.125C17.2999 3.50368 17.8036 3 18.4249 3H20.6749C21.2962 3 21.7999 3.50368 21.7999 4.125V19.875C21.7999 20.4963 21.2962 21 20.6749 21H18.4249C17.8036 21 17.2999 20.4963 17.2999 19.875V4.125Z" stroke="#111827" stroke-width="1.5" stroke-linecap="round" stroke-linejoin="round"/>
</svg>
