<svg width="24" height="24" viewBox="0 0 24 24" fill="none" xmlns="http://www.w3.org/2000/svg">
<path fill-rule="evenodd" clip-rule="evenodd" d="M12 2.99998C16.9706 2.99998 21 7.02942 21 12C21 16.4921 17.7088 20.2155 13.4062 20.8906L13.4063 14.6016H15.5033L15.5033 14.6015L15.9023 12L15.9023 12H13.4062L13.4063 10.3117C13.4063 10.3117 13.4062 10.3117 13.4062 10.3117C13.4062 9.96012 13.4913 9.6129 13.7122 9.35155C13.9385 9.08386 14.3072 8.90624 14.8729 8.90624H16.0078L16.0078 8.90623L16.0078 6.6914L16.0078 6.69139C16.0078 6.69139 14.9779 6.51561 13.9932 6.51561C12.7083 6.51561 11.7016 7.0023 11.1273 7.91801C10.7827 8.46744 10.5938 9.17131 10.5938 10.0172C10.5938 10.0172 10.5938 10.0172 10.5938 10.0172L10.5938 12H8.30859V12V14.6015V14.6016H10.5938L10.5938 20.8906C6.29117 20.2155 3 16.4921 3 12C3 7.02942 7.02943 2.99998 12 2.99998Z" fill="#1877F2"/>
</svg>
