<svg width="24" height="24" viewBox="0 0 24 24" fill="none" xmlns="http://www.w3.org/2000/svg">
<path fill-rule="evenodd" clip-rule="evenodd" d="M16.1997 5.92514C20.2173 8.24473 21.5939 13.3821 19.2743 17.3998C16.9547 21.4174 11.8173 22.794 7.79967 20.4744C3.78201 18.1548 2.40546 13.0174 4.72506 8.99975C4.92713 8.64974 5.15059 8.31978 5.39284 8.01056C5.63477 7.70174 6.10158 7.74843 6.34459 8.05641C6.67787 8.47877 7.05745 8.86291 7.47568 9.20116C7.87485 9.52399 8.41979 9.14331 8.40367 8.63018C8.40127 8.55373 8.40006 8.47698 8.40006 8.39995C8.40006 7.2977 8.64774 6.2533 9.09049 5.31938C9.73027 3.96985 10.7774 2.85099 12.073 2.12157C12.3694 1.95471 12.7335 2.10263 12.8853 2.407C13.5957 3.83123 14.7181 5.06975 16.1997 5.92514ZM16.8001 14.4C16.8001 17.051 14.651 19.2 12.0001 19.2C9.70411 19.2 7.77494 17.5219 7.30822 15.382C7.19595 14.8672 7.83562 14.6099 8.28477 14.8853C8.86801 15.243 9.52479 15.4757 10.2065 15.5621C10.5696 15.6082 10.8433 15.2747 10.8178 14.9096C10.806 14.7412 10.8001 14.5713 10.8001 14.4C10.8001 12.6877 11.3978 11.115 12.3959 9.87922C12.5205 9.72499 12.7188 9.64928 12.9135 9.68679C15.1276 10.1133 16.8001 12.0614 16.8001 14.4Z" fill="#111827"/>
</svg>
