<svg width="96" height="96" viewBox="0 0 96 96" fill="none" xmlns="http://www.w3.org/2000/svg">
<path fill-rule="evenodd" clip-rule="evenodd" d="M42.1905 79.3421V16.6582L48.2221 13.1756L54.2542 16.6582V37.4339L66.3175 44.399V23.623L78.3812 30.5878V65.4122L66.3175 72.377V58.3287L54.2542 51.3638V79.3421L48.2221 82.8247L42.1905 79.3421ZM30.1271 53.6861V86.3069L45.7844 95.347C47.2929 96.2177 49.1514 96.2177 50.6599 95.347L88.0072 73.7847C89.5153 72.9136 90.4446 71.304 90.4446 69.5623V26.4377C90.4446 24.696 89.5153 23.0864 88.0072 22.2153L50.6599 0.653041C49.1514 -0.21768 47.2929 -0.21768 45.7844 0.653041L8.43744 22.2153C6.92896 23.0864 6 24.696 6 26.4377V69.5623C6 71.304 6.92896 72.9136 8.43744 73.7847L18.0634 79.3421V60.6512L30.1271 53.6861ZM30.1271 23.623V38.3513V39.7565L18.0634 46.7213V30.5878L30.1271 23.623Z" fill="url(#paint0_linear_1587_3431)"/>
<defs>
<linearGradient id="paint0_linear_1587_3431" x1="48.2223" y1="0" x2="48.2223" y2="96" gradientUnits="userSpaceOnUse">
<stop stop-color="#81F5E2"/>
<stop offset="1" stop-color="#4AE7C1"/>
</linearGradient>
</defs>
</svg>
